<svg xmlns="http://www.w3.org/2000/svg" width="32px" height="32px"  viewBox="0 0 24 24"><g>
                <path d="M12.35,13.85c-0.18,0.2-0.52,0.19-0.7,0l-3-3c-0.2-0.19-0.19-0.5,0-0.7c0.18-0.2,0.52-0.19,0.7,0
                    L12,12.79l2.65-2.64c0.19-0.2,0.5-0.19,0.7,0c0.2,0.18,0.19,0.52,0,0.7L12.35,13.85z"/>
                <path d="M21.933,12c0,5.477-4.456,9.933-9.933,9.933S2.067,17.477,2.067,12S6.523,2.067,12,2.067
                    S21.933,6.523,21.933,12z M3.067,12c0,4.926,4.007,8.933,8.933,8.933s8.933-4.007,8.933-8.933S16.926,3.067,12,3.067
                    S3.067,7.074,3.067,12z"/>
            </g></svg>