<svg xmlns="http://www.w3.org/2000/svg" fill="white" width="32px" height="32px"  viewBox="0 0 24 24"><g>
                <path d="M5.552,20.968c-1.541-0.056-2.496-1.249-2.504-2.729c-0.012-2.153,0-4.307,0-6.46
                    c0-0.645,1-0.643,1,0c0,2.199-0.032,4.401,0,6.6c0.016,1.107,0.848,1.589,1.838,1.589h12.467c0.643-0.021,1.237-0.337,1.472-0.97
                    c0.125-0.337,0.095-0.708,0.095-1.061c0-2.053,0-4.106,0-6.159l0,0c0-0.645,1-0.643,1,0c0,2.224,0.086,4.465,0,6.688
                    c-0.058,1.498-1.209,2.489-2.67,2.502H5.552z"/>
                <path d="M11.63,15.818c0.097,0.097,0.205,0.133,0.311,0.138c0.014,0.002,0.028,0.005,0.042,0.006
                    c0.014-0.001,0.027-0.004,0.041-0.006c0.107-0.005,0.215-0.041,0.312-0.138l3.669-3.669c0.456-0.456-0.251-1.163-0.707-0.707
                    c-0.938,0.938-1.877,1.877-2.815,2.815V3.515c0-0.643-1-0.644-1,0v10.742l-2.815-2.815c-0.456-0.456-1.163,0.251-0.707,0.707
                    L11.63,15.818z"/>
            </g></svg>