<?xml version="1.0" standalone="no"?>
<!DOCTYPE svg PUBLIC "-//W3C//DTD SVG 20010904//EN"
 "http://www.w3.org/TR/2001/REC-SVG-20010904/DTD/svg10.dtd">
<svg version="1.0" xmlns="http://www.w3.org/2000/svg"
 width="619.000000pt" height="488.000000pt" viewBox="0 0 619.000000 488.000000"
 preserveAspectRatio="xMidYMid meet">
<metadata>
Created by potrace 1.16, written by Peter Selinger 2001-2019
</metadata>
<g transform="translate(0.000000,488.000000) scale(0.100000,-0.100000)"
fill="#000000" stroke="none">
<path d="M2985 3674 c-11 -2 -47 -9 -80 -16 -33 -6 -98 -29 -145 -51 -67 -32
-101 -58 -160 -117 -83 -83 -126 -154 -161 -270 -32 -100 -32 -274 -2 -367 28
-84 81 -176 144 -248 102 -117 146 -257 134 -433 l-7 -103 43 -41 c39 -37 42
-45 44 -94 1 -45 6 -59 30 -84 16 -16 36 -32 45 -35 11 -3 20 -20 23 -41 7
-43 48 -99 87 -119 44 -23 121 -19 161 8 34 23 64 70 73 117 4 17 17 32 39 42
44 21 71 77 63 128 -5 34 -3 40 28 63 48 37 63 78 48 133 -15 54 -15 154 -1
214 15 66 62 155 129 245 144 192 194 367 156 545 -31 144 -85 243 -190 350
-61 62 -174 128 -263 155 -50 15 -203 27 -238 19z m200 -86 c238 -50 425 -294
425 -551 0 -130 -43 -242 -144 -376 -79 -105 -133 -219 -153 -326 l-18 -90
-59 -3 c-32 -2 -63 1 -67 5 -8 8 72 310 117 446 17 51 13 91 -10 100 -27 10
-46 -18 -72 -108 -15 -49 -31 -96 -36 -102 -7 -9 -44 -13 -119 -13 -94 0 -108
2 -113 18 -2 9 -14 51 -26 92 -26 89 -44 120 -69 120 -25 0 -34 -26 -22 -64 5
-17 26 -92 46 -166 21 -74 48 -173 61 -219 14 -48 21 -88 16 -93 -5 -5 -40 -8
-78 -6 l-69 3 -7 60 c-16 122 -71 243 -164 355 -107 128 -139 227 -132 400 8
167 72 300 192 402 140 118 309 157 501 116z m-39 -1097 c3 -2 -65 -231 -71
-241 -8 -13 -32 -13 -40 -1 -10 17 -65 210 -65 228 0 16 10 18 87 16 49 -1 89
-2 89 -2z m166 -338 c24 -21 23 -48 -2 -73 -19 -19 -33 -20 -258 -20 -172 0
-241 3 -250 12 -18 18 -15 75 6 87 10 6 111 11 251 11 204 0 237 -2 253 -17z
m-82 -183 c11 -11 20 -26 20 -32 -1 -20 -25 -46 -51 -56 -33 -12 -306 -10
-318 3 -22 23 -23 63 -2 84 19 19 32 21 176 21 142 0 157 -2 175 -20z"/>
<path d="M3168 3373 c-33 -39 -269 -504 -266 -525 4 -31 34 -47 52 -28 18 18
286 514 286 528 0 15 -29 42 -44 42 -7 0 -20 -8 -28 -17z"/>
<path d="M2769 3183 c-38 -36 -69 -71 -69 -77 1 -16 137 -156 153 -156 17 0
37 20 37 37 0 8 -21 36 -47 64 l-46 50 46 47 c26 26 47 55 47 64 0 15 -27 38
-45 38 -4 0 -38 -30 -76 -67z"/>
<path d="M3257 3238 c-26 -14 -21 -25 33 -82 l50 -52 -41 -40 c-22 -21 -45
-47 -50 -56 -12 -23 5 -58 29 -58 21 0 152 130 152 151 0 16 -116 133 -141
142 -8 3 -23 1 -32 -5z"/>
<path d="M815 1348 c-77 -28 -115 -78 -115 -148 0 -44 17 -85 47 -112 10 -9
59 -37 109 -62 107 -52 134 -81 134 -140 0 -120 -182 -139 -240 -25 -29 55
-46 46 -42 -22 5 -82 50 -109 182 -109 94 0 164 34 190 92 11 24 20 61 20 83
0 77 -49 126 -209 209 -93 48 -101 57 -101 110 0 44 29 68 88 74 69 6 115 -17
135 -69 9 -23 22 -39 32 -39 13 0 15 10 13 57 -3 57 -4 58 -46 82 -50 27 -150
37 -197 19z"/>
<path d="M1465 1351 c-84 -22 -153 -79 -197 -164 -33 -65 -37 -193 -7 -272 63
-167 250 -243 407 -164 109 54 165 151 165 285 0 92 -25 162 -82 227 -62 70
-197 112 -286 88z m161 -72 c17 -10 44 -42 59 -71 25 -46 30 -66 33 -148 5
-124 -18 -190 -85 -250 -41 -35 -52 -40 -96 -40 -39 0 -58 6 -85 26 -110 84
-124 345 -25 454 55 62 128 73 199 29z"/>
<path d="M3956 1342 c-27 -9 -53 -24 -58 -32 -4 -8 -53 -130 -108 -270 -65
-164 -108 -261 -122 -271 -32 -25 -14 -38 50 -36 l57 3 2 34 c0 19 14 67 30
105 l30 70 127 1 c85 1 129 -3 131 -10 2 -6 15 -44 30 -84 21 -57 24 -76 15
-87 -6 -8 -9 -18 -6 -23 6 -10 145 -14 159 -5 5 3 -2 15 -16 27 -18 15 -50 85
-112 251 -48 127 -96 256 -107 288 -22 64 -25 65 -102 39z m65 -201 c27 -73
46 -137 43 -142 -6 -11 -214 -12 -214 -2 0 21 106 282 114 280 4 -1 30 -63 57
-136z"/>
<path d="M4503 1336 c-65 -31 -93 -73 -93 -137 0 -73 28 -104 154 -171 59 -31
114 -65 121 -75 22 -29 26 -72 10 -109 -36 -88 -183 -78 -232 15 -27 52 -47
47 -51 -11 -3 -40 1 -52 21 -72 33 -33 97 -49 182 -44 115 6 173 47 193 135
20 90 -34 158 -188 237 -109 57 -120 67 -120 115 0 53 26 74 98 78 71 5 117
-20 130 -69 5 -19 16 -34 26 -36 15 -3 17 4 14 55 -3 57 -4 58 -46 82 -66 36
-153 39 -219 7z"/>
<path d="M1975 1341 c-3 -6 3 -16 15 -23 19 -12 20 -22 20 -274 0 -247 -1
-262 -20 -279 -11 -10 -18 -21 -15 -25 6 -10 154 -9 161 1 3 5 -4 17 -16 27
-19 16 -21 25 -18 132 l3 115 96 3 c77 2 99 0 109 -13 25 -30 40 -18 40 34 0
56 -8 67 -36 46 -13 -10 -47 -14 -114 -15 l-95 0 1 108 0 107 108 3 107 3 30
-32 c41 -44 56 -34 49 32 l-5 54 -207 3 c-128 1 -209 -1 -213 -7z"/>
<path d="M2520 1290 c0 -69 9 -74 50 -30 24 26 35 30 79 30 l51 0 0 -254 c0
-213 -2 -256 -15 -266 -8 -7 -15 -18 -15 -26 0 -17 161 -15 167 2 2 6 -5 14
-17 17 -20 5 -20 10 -18 264 l3 258 29 3 c53 6 96 -7 108 -34 6 -13 19 -24 30
-24 15 0 18 8 18 44 0 81 15 76 -241 76 l-229 0 0 -60z"/>
<path d="M3115 1340 c-3 -5 3 -15 15 -22 19 -12 20 -22 20 -272 0 -224 -2
-262 -16 -277 -25 -28 -10 -36 66 -36 71 0 97 12 66 29 -13 8 -16 28 -16 133
l0 125 94 0 c71 0 98 -4 110 -15 27 -27 36 -17 36 40 0 57 -14 71 -40 40 -9
-11 -35 -15 -106 -15 l-94 0 0 110 0 110 99 0 c112 0 146 -9 154 -40 4 -14 12
-21 24 -18 15 3 17 11 14 53 -1 28 -5 53 -8 58 -6 11 -411 9 -418 -3z"/>
<path d="M4937 1344 c-4 -4 -7 -31 -7 -61 0 -46 3 -53 20 -53 11 0 20 6 20 14
0 25 42 46 92 46 l48 0 0 -252 c0 -216 -2 -254 -16 -269 -26 -28 -9 -37 71
-37 77 0 99 10 71 31 -13 10 -15 49 -17 267 l-2 255 48 3 c50 3 95 -17 95 -43
0 -8 9 -15 20 -15 19 0 21 5 18 58 l-3 57 -226 3 c-124 1 -228 -1 -232 -4z"/>
</g>
</svg>
